<svg width="86" height="50" viewBox="0 0 86 50" fill="none" xmlns="http://www.w3.org/2000/svg">
<path fill-rule="evenodd" clip-rule="evenodd" d="M28.0941 39.8485C28.5258 40.3628 29.0266 40.7874 29.5953 41.1234C29.7937 41.2409 29.9996 41.3485 30.2142 41.4443C31.0452 41.8149 31.9798 42 33.0167 42C34.0532 42 34.9847 41.8149 35.8115 41.4443C36.6379 41.074 37.3397 40.5419 37.9171 39.8485C38.3558 39.3213 38.7166 38.7047 39 38H27C27.287 38.7047 27.6515 39.3213 28.0941 39.8485Z" fill="#FF4119"/>
<path fill-rule="evenodd" clip-rule="evenodd" d="M26 34.0108C26 35.2419 26.163 36.3461 26.4894 37.3239C26.5678 37.5579 26.6538 37.783 26.7483 38H39.2626C39.3557 37.783 39.4407 37.5579 39.5176 37.3239C39.8392 36.3461 40 35.2419 40 34.0108V34H26V34.0108Z" fill="#004AA4"/>
<path fill-rule="evenodd" clip-rule="evenodd" d="M39.5179 31.6575C39.444 31.4285 39.3615 31.2078 39.2722 30.9945C38.9755 30.2872 38.5956 29.6675 38.1337 29.1362C37.5315 28.4451 36.7996 27.9164 35.9377 27.5498C35.0755 27.1835 34.104 27 33.0231 27C31.9414 27 30.967 27.1835 30.1004 27.5498C29.9095 27.6306 29.7271 27.7223 29.5484 27.819C28.9172 28.1604 28.3626 28.5974 27.8894 29.1362C27.4227 29.6675 27.0396 30.2872 26.7388 30.9945C26.6484 31.2078 26.5652 31.4285 26.4894 31.6575C26.1637 32.6438 26.0011 33.7584 26 35H40C39.9993 33.7584 39.8385 32.6438 39.5179 31.6575Z" fill="#FFDE19"/>
<path fill-rule="evenodd" clip-rule="evenodd" d="M25.2337 14.3432C26.0802 15.2189 27.4526 15.2189 28.2995 14.3432L29.8324 12.7573L28.2995 11.1715L26.7666 12.7573L22.1678 7.99986L26.7666 3.24238L29.8324 6.41404L26.7666 9.58569L28.2995 11.1715L31.3654 7.99986C32.2116 7.12409 32.2116 5.70435 31.3654 4.82821L28.2995 1.65655C27.4526 0.781149 26.0802 0.781149 25.2337 1.65655L20.6349 6.41404C19.7884 7.29017 19.7884 8.70992 20.6349 9.58569L25.2337 14.3432Z" fill="#98CA3F"/>
<path fill-rule="evenodd" clip-rule="evenodd" d="M36.2848 5.15444H38.2403C39.1456 5.15444 39.7488 5.86304 39.7488 6.78872C39.7488 7.7144 39.1228 8.43469 38.2403 8.43469H36.2848V5.15444ZM36.307 9.60046H38.2403C39.961 9.60046 41 8.31995 41 6.82307C41 5.30317 39.9835 4 38.2403 4H35V12H36.307V9.60046Z" fill="white"/>
<path fill-rule="evenodd" clip-rule="evenodd" d="M44 11.9259L43.9627 10.9788C43.1945 11.1252 43.0003 10.8433 43.0003 9.94128V4H42V9.95281C42 11.768 42.6299 12.1963 44 11.9259Z" fill="white"/>
<path fill-rule="evenodd" clip-rule="evenodd" d="M48.0459 7.05879C48.4007 7.05879 48.8244 7.11914 49.2026 7.29943V9.00659C49.1678 10.0764 48.6871 10.8337 47.7596 10.8337C46.7403 10.8337 46.2482 10.0041 46.2482 8.94625C46.2826 7.69614 46.9922 7.05879 48.0459 7.05879ZM47.496 12C48.3092 12 49.088 11.5429 49.397 10.7376V10.9779C49.397 11.94 50.2102 12.0358 51 11.8793V10.9902C50.3929 11.0501 50.4043 10.7138 50.4043 10.1848V6.54176C49.683 6.2054 48.9273 6.0009 48.1375 6.0009C46.3397 5.96476 45.0344 7.02266 45 8.94625C45 10.5811 45.8132 12 47.496 12Z" fill="white"/>
<path fill-rule="evenodd" clip-rule="evenodd" d="M52.2502 9.74957C52.2502 11.9127 53.8957 12.3474 56 11.7637L55.8601 10.8251C54.5968 11.2258 53.615 11.1343 53.615 9.72688V7.35776H55.7451V6.35069H53.615V5H52.2502V6.35069H51V7.35776H52.2502V9.74957Z" fill="white"/>
<path fill-rule="evenodd" clip-rule="evenodd" d="M60.9877 10.83H57.9279L59.1469 9.04976L61 6.17397V6H56.1865V7.10788H59.0471L57.7409 9L56 11.7265V12H60.9877V10.83Z" fill="white"/>
<path fill-rule="evenodd" clip-rule="evenodd" d="M62.0229 5C62.5117 5 63 4.82945 63 4.49604C63 4.17055 62.5117 4 62.0078 4C61.5039 4 61 4.16286 61 4.49604C61 4.83714 61.5195 5 62.0229 5Z" fill="white"/>
<mask id="mask0" mask-type="alpha" maskUnits="userSpaceOnUse" x="0" y="0" width="88" height="50">
<path d="M0 50H88V0H0V50Z" fill="white"/>
</mask>
<g mask="url(#mask0)">
<path fill-rule="evenodd" clip-rule="evenodd" d="M62 12H63V6H62V12Z" fill="white"/>
<path fill-rule="evenodd" clip-rule="evenodd" d="M41.8787 38.3336C41.4461 39.6127 40.8236 40.6957 40.0129 41.5813C39.2019 42.4682 38.2157 43.1478 37.0541 43.6215C35.8922 44.0952 34.5833 44.3317 33.1262 44.3317C31.6691 44.3317 30.3562 44.0952 29.1879 43.6215C28.8863 43.4988 28.5972 43.3618 28.3187 43.2118C27.5188 42.7816 26.8153 42.2387 26.2088 41.5813C25.3907 40.6957 24.7621 39.6127 24.3219 38.3336C23.8822 37.0549 23.6623 35.611 23.6623 34.0002C23.6623 32.3901 23.8822 30.9458 24.3219 29.6667C24.7621 28.388 25.3907 27.3018 26.2088 26.4089C26.8463 25.7128 27.5934 25.1481 28.4444 24.7067C28.685 24.582 28.9306 24.4632 29.1879 24.3588C30.3562 23.8855 31.6691 23.6483 33.1262 23.6483C34.5833 23.6483 35.8922 23.8855 37.0541 24.3588C38.2157 24.8325 39.2019 25.5156 40.0129 26.4089C40.8236 27.3018 41.4461 28.388 41.8787 29.6667C42.3117 30.9458 42.5284 32.3901 42.5284 34.0002C42.5284 35.611 42.3117 37.0549 41.8787 38.3336ZM86 21.1165C86 20.1269 85.1851 19.3247 84.1803 19.3247H72.0463H70.4861H67.196H67.191H67.1593V19.3296V37.167C67.1593 37.5595 67.17 37.9822 67.1903 38.4355C67.1917 38.4647 67.1946 38.4946 67.196 38.5237V39.6907L56.3493 26.0863L51.6543 20.1979C51.5029 20.0085 51.3655 19.8564 51.2416 19.7411C51.1181 19.6265 50.9907 19.5383 50.8604 19.4772C50.7297 19.4161 50.5823 19.3756 50.4171 19.3553C50.2521 19.3352 50.0462 19.3247 49.7984 19.3247H46.8914V27.4694C46.1832 25.8695 45.2387 24.4695 44.054 23.273C42.7343 21.9402 41.147 20.8947 39.2915 20.1368C37.4357 19.3795 35.3804 19 33.1262 19C30.8717 19 28.8131 19.3756 26.9509 20.1266C26.121 20.4615 25.3475 20.8578 24.6246 21.309C23.724 21.8706 22.903 22.52 22.1674 23.2628C20.8406 24.6024 19.8136 26.1889 19.0851 28.0225C18.3565 29.8565 17.9921 31.8489 17.9921 34.0002C17.9921 36.1518 18.3565 38.1446 19.0851 39.9778C19.5548 41.1606 20.1509 42.2391 20.8695 43.2163C20.4254 43.4785 19.9585 43.6967 19.4645 43.865C18.9491 44.0407 18.3851 44.1693 17.7736 44.2505C17.1618 44.3317 16.4779 44.3728 15.7222 44.3728C14.4572 44.3728 13.2749 44.1391 12.1755 43.6721C11.0757 43.2054 10.1205 42.5321 9.30953 41.6526C8.49853 40.773 7.85601 39.6904 7.38162 38.405C6.90759 37.1192 6.67021 35.6514 6.67021 34.0002C6.67021 32.4038 6.90759 30.9658 7.38162 29.6871C7.85601 28.4084 8.51566 27.3222 9.36093 26.4293C10.2066 25.536 11.2171 24.8497 12.3922 24.369C13.5676 23.889 14.8562 23.6483 16.2584 23.6483H16.2837C17.4927 23.6501 18.4804 22.7034 18.4804 21.5129V19.1339V19.1269C18.4058 19.1177 18.3273 19.1146 18.2519 19.1065C18.0499 19.0854 17.845 19.0671 17.638 19.0524C17.5341 19.045 17.4317 19.0358 17.3264 19.0299C17.2607 19.0267 17.1918 19.0274 17.1257 19.0242C16.8534 19.0127 16.5814 19 16.2994 19C14.031 19 11.9592 19.369 10.0827 20.1066C8.20654 20.8441 6.59454 21.8759 5.24775 23.2017C3.90025 24.5282 2.85616 26.1078 2.11405 27.9414C1.37159 29.7753 1 31.7948 1 34.0002C1 36.1792 1.33339 38.1885 2.00018 40.0288C2.66662 41.8694 3.62575 43.4521 4.87652 44.7783C6.12729 46.1048 7.63577 47.14 9.40269 47.884C11.1685 48.6286 13.1582 49 15.3713 49C17.8457 49 19.966 48.6078 21.7326 47.8232C22.6121 47.4321 23.4231 46.9552 24.1649 46.393C25.0162 46.9717 25.9425 47.4672 26.9509 47.8738C28.8131 48.6247 30.8717 49 33.1262 49C35.3804 49 37.4357 48.6247 39.2915 47.8738C41.147 47.1228 42.7343 46.0774 44.054 44.7379C45.2387 43.5354 46.1832 42.1323 46.8914 40.5316V48.6757H51.7778V30.6513C51.7778 30.2996 51.7674 29.9102 51.7471 29.4836C51.7264 29.0581 51.6957 28.6283 51.6543 28.1947L54.2614 31.4648L67.2421 47.742C67.5166 48.0937 67.7986 48.3376 68.0873 48.4725C68.359 48.6001 68.7002 48.6651 69.1057 48.6725C69.1314 48.6732 69.1543 48.6757 69.18 48.6757H69.961H72.0463H72.7838V36.72H81.6926C82.9331 36.72 83.9382 35.7305 83.9382 34.5094V32.356H83.9297H72.7838V23.6687H79.6841H86V21.1165Z" fill="white"/>
</g>
</svg>
